<svg width="64" height="60" viewBox="0 0 64 60" fill="none" xmlns="http://www.w3.org/2000/svg">
<path d="M11.2247 30.5842C11.2247 41.1753 20.293 49.7896 31.4395 49.7896C42.5859 49.7896 51.6543 41.1753 51.6543 30.5842C51.6543 19.9943 42.5859 11.38 31.4395 11.38C20.293 11.3812 11.2247 19.9943 11.2247 30.5842ZM31.4395 13.9389C41.0994 13.9389 48.9584 21.4054 48.9584 30.5842C48.9584 39.7606 41.0982 47.2295 31.4395 47.2295C21.7807 47.2295 13.9205 39.7618 13.9205 30.5842C13.9205 21.4054 21.7795 13.9389 31.4395 13.9389Z" fill="#090808"/>
<path d="M55.0772 29.8379V30.1579C55.0772 31.5714 56.2505 32.4535 57.6998 32.1275L62.8977 30.962C64.3469 30.635 64.3705 30.0304 62.9486 29.6088L57.6501 28.0406C56.2294 27.6202 55.0772 28.4244 55.0772 29.8379Z" fill="#090808"/>
<path d="M1.05134 30.3894L6.35113 31.9575C7.77178 32.3779 8.92397 31.5726 8.92397 30.1591L8.92397 29.8391C8.92397 28.4268 7.74941 27.5435 6.30141 27.8694L1.1023 29.0361C-0.346938 29.362 -0.370554 29.9678 1.05134 30.3894Z" fill="#090808"/>
<path d="M53.6267 22.3525L53.7436 22.6524C54.2507 23.9785 55.6726 24.426 56.918 23.6514L61.3813 20.8646C62.6267 20.0888 62.4291 19.5113 60.9413 19.5786L55.3979 19.8278C53.9114 19.8916 53.1196 21.024 53.6267 22.3525Z" fill="#090808"/>
<path d="M10.3732 37.6481L10.2564 37.3482C9.74928 36.0185 8.32739 35.5698 7.08199 36.348L2.61867 39.1324C1.37327 39.9106 1.56965 40.4857 3.05866 40.4196L8.60207 40.1739C10.0886 40.109 10.8816 38.9777 10.3732 37.6481Z" fill="#090808"/>
<path d="M49.7849 16.0279C50.7419 17.1119 52.2396 17.0706 53.1283 15.9369L56.3189 11.8654C57.2088 10.7317 56.816 10.2559 55.4439 10.8026L50.323 12.8384C48.9509 13.3816 48.6128 14.7018 49.5698 15.7858L49.7849 16.0279Z" fill="#090808"/>
<path d="M14.2126 43.9692C13.2543 42.8851 11.7591 42.9265 10.8716 44.0601L7.6786 48.1305C6.78991 49.2653 7.18392 49.7411 8.55734 49.1956L13.6757 47.1622C15.0478 46.6178 15.3884 45.2976 14.4314 44.2136L14.2126 43.9692Z" fill="#090808"/>
<path d="M43.3925 10.9336L43.6834 11.0919C44.9723 11.8004 46.3631 11.2737 46.7919 9.91929L48.3257 5.05652C48.7532 3.7009 48.2126 3.38088 47.1188 4.33974L43.0371 7.91537C41.9445 8.87423 42.1036 10.2251 43.3925 10.9336Z" fill="#090808"/>
<path d="M20.6074 49.0668L20.3166 48.9074C19.0277 48.1989 17.6368 48.7244 17.2093 50.08L15.673 54.9404C15.2455 56.296 15.7874 56.616 16.8824 55.6584L20.9616 52.0839C22.0554 51.1251 21.8963 49.7742 20.6074 49.0668Z" fill="#090808"/>
<path d="M35.8418 8.38299L36.1737 8.43613C37.6403 8.68293 38.7577 7.73706 38.672 6.32358L38.3637 1.2589C38.2779 -0.153399 37.654 -0.279754 36.9716 0.977855L34.4237 5.66348C33.7401 6.91755 34.3752 8.13619 35.8418 8.38299Z" fill="#090808"/>
<path d="M28.1581 51.6187L27.8263 51.5644C26.3584 51.3176 25.241 52.2635 25.3255 53.6758L25.6363 58.7428C25.7208 60.1551 26.3447 60.2815 27.0283 59.0239L29.5751 54.3394C30.2599 53.083 29.6248 51.8655 28.1581 51.6187Z" fill="#090808"/>
<path d="M27.83 8.43491L28.1606 8.37941C29.6272 8.13261 30.337 6.87972 29.7478 5.58197L27.6336 0.922316C27.0432 -0.377805 26.4131 -0.292783 26.2229 1.11007L25.5182 6.34244C25.328 7.74529 26.3621 8.68171 27.83 8.43491Z" fill="#090808"/>
<path d="M36.1725 51.5656L35.8406 51.6199C34.374 51.8667 33.6643 53.1184 34.2522 54.4173L36.3676 59.0781C36.9555 60.3771 37.5881 60.2932 37.7771 58.8904L38.483 53.6592C38.6732 52.2564 37.6391 51.3188 36.1725 51.5656Z" fill="#090808"/>
<path d="M17.3907 9.87439C17.7189 11.2548 19.0289 11.8004 20.3166 11.0918L20.6074 10.9324C21.8951 10.2239 22.1126 8.81752 21.0934 7.789L17.428 4.09412C16.4088 3.0656 15.8458 3.349 16.1727 4.7306L17.3907 9.87439Z" fill="#090808"/>
<path d="M46.6105 50.1285C46.2824 48.7481 44.9736 48.2025 43.6834 48.9099L43.3938 49.0705C42.1049 49.7766 41.8874 51.1842 42.9078 52.2127L46.572 55.9064C47.5924 56.935 48.1554 56.6504 47.8285 55.2711L46.6105 50.1285Z" fill="#090808"/>
<path d="M11.0283 15.8365C11.8312 17.0268 13.2593 17.113 14.2151 16.0302L14.4289 15.7845C15.3872 14.7017 15.0814 13.3083 13.7515 12.6718L8.98118 10.3927C7.6525 9.75861 7.22369 10.2085 8.02786 11.4L11.0283 15.8365Z" fill="#090808"/>
<path d="M52.9742 44.1652C52.1713 42.9749 50.7444 42.8887 49.7861 43.9715L49.5711 44.2172C48.614 45.3 48.9173 46.6934 50.2472 47.3287L55.0175 49.6101C56.3475 50.2454 56.775 49.7944 55.9709 48.6041L52.9742 44.1652Z" fill="#090808"/>
<path d="M2.78027 20.3108L7.19263 23.5062C8.37713 24.3635 9.74931 23.9797 10.2589 22.6512L10.3733 22.3525C10.8816 21.024 10.0948 19.8136 8.61826 19.6471L3.31348 19.0567C1.83689 18.8914 1.59577 19.4523 2.78027 20.3108Z" fill="#090808"/>
<path d="M61.2235 39.692L56.8111 36.4966C55.6266 35.6393 54.2544 36.0219 53.7461 37.3504L53.6292 37.6503C53.1209 38.98 53.9076 40.1904 55.3855 40.3569L60.6902 40.9461C62.1681 41.1114 62.408 40.5505 61.2235 39.692Z" fill="#090808"/>
</svg>
