<svg width="70" height="43" viewBox="0 0 70 43" fill="none" xmlns="http://www.w3.org/2000/svg">
<path d="M57.5586 43H12.4414C9.15332 43 6.04379 41.6631 3.68566 39.2355C1.30895 36.7889 0 33.5444 0 30.1C0 26.6556 1.30895 23.4111 3.68566 20.9645C5.54695 19.0484 7.87637 17.8119 10.3923 17.3757C10.3912 17.3175 10.3906 17.2589 10.3906 17.2C10.3906 7.71592 17.7505 0 26.7969 0C30.1517 0 33.3756 1.0588 36.1203 3.06203C38.0524 4.47214 39.6565 6.27886 40.849 8.37153C42.7738 7.1198 44.994 6.45 47.3047 6.45C53.4414 6.45 58.5432 11.1837 59.4619 17.3514C62.0337 17.7642 64.4171 19.0113 66.3145 20.9645C68.6911 23.4111 70 26.6554 70 30.1C70 33.5446 68.6911 36.7889 66.3145 39.2355C63.9562 41.6631 60.8467 43 57.5586 43ZM12.4414 21.5C7.84273 21.5 4.10156 25.358 4.10156 30.1C4.10156 34.842 7.84273 38.7 12.4414 38.7H57.5586C62.1573 38.7 65.8984 34.842 65.8984 30.1C65.8984 25.358 62.1573 21.5 57.5586 21.5H55.5078V19.35C55.5078 14.608 51.8279 10.75 47.3047 10.75C45.1492 10.75 43.1102 11.6272 41.5632 13.2201L39.3557 15.493L38.2189 12.476C36.3474 7.50938 31.8639 4.3 26.7969 4.3C20.0121 4.3 14.4922 10.0869 14.4922 17.2C14.4922 17.708 14.5682 18.2534 14.6486 18.8308L15.016 21.5H12.4414Z" fill="black"/>
</svg>
