<svg width="44" height="48" viewBox="0 0 44 48" fill="none" xmlns="http://www.w3.org/2000/svg">
<path d="M43.4612 19.0851L36.675 1.31662C36.3738 0.527827 35.5637 0 34.6544 0C33.7452 0 32.9351 0.527827 32.634 1.31662L25.8478 19.085C24.8317 21.7454 25.266 24.5905 27.0393 26.8911C28.8125 29.1914 31.588 30.5108 34.6546 30.5108C37.7212 30.5108 40.497 29.1914 42.2701 26.891C44.0431 24.5906 44.4773 21.7454 43.4612 19.0851ZM38.7757 24.614C37.816 25.8588 36.3141 26.5729 34.6546 26.5729C32.9952 26.5729 31.4932 25.8591 30.5337 24.6141C29.5741 23.3692 29.3391 21.8294 29.8888 20.3898L34.6546 7.91164L39.4204 20.3898C39.97 21.8296 39.735 23.3691 38.7757 24.614Z" fill="#F8F8F8"/>
<path d="M20.4324 22.4288C20.1313 21.64 19.3211 21.1122 18.412 21.1122C17.5028 21.1122 16.6926 21.64 16.3915 22.4288L10.7493 37.2023C9.87815 39.4831 10.2656 42.0222 11.7858 43.9944C13.306 45.9665 15.7831 47.144 18.4121 47.144C21.0411 47.144 23.5183 45.9665 25.0384 43.9944C26.5585 42.0222 26.9459 39.4831 26.0749 37.2023L20.4324 22.4288ZM21.5438 41.7174C20.8146 42.6635 19.673 43.2061 18.4118 43.2061C17.1506 43.2061 16.0092 42.6635 15.2798 41.7174C14.5507 40.7714 14.3721 39.6012 14.7899 38.5071L18.4117 29.0241L22.0335 38.5071C22.4517 39.6012 22.2731 40.7714 21.5438 41.7174Z" fill="#F8F8F8"/>
<path d="M11.8836 20.6426C13.1087 19.0534 13.421 17.0072 12.719 15.1691L8.56428 4.29086C8.26319 3.50207 7.45299 2.97424 6.54386 2.97424C5.63473 2.97424 4.82454 3.50207 4.52344 4.29086L0.368677 15.1691C-0.333302 17.0072 -0.0209304 19.0534 1.20414 20.6426C2.42907 22.2319 4.42536 23.1808 6.54386 23.1808C8.66236 23.1808 10.6587 22.2319 11.8836 20.6426ZM8.38939 18.3655C7.95967 18.923 7.28696 19.2428 6.54386 19.2428C5.80077 19.2428 5.12806 18.923 4.69833 18.3655C4.26861 17.808 4.16339 17.1185 4.40966 16.4738L6.54386 10.886L8.67807 16.4738C8.92434 17.1185 8.81898 17.808 8.38939 18.3655Z" fill="#F8F8F8"/>
</svg>
