<svg width="21" height="20" viewBox="0 0 21 20" fill="none" xmlns="http://www.w3.org/2000/svg">
<path d="M20.7428 7.75001L17.504 0.534645C17.3602 0.214338 16.9736 0 16.5396 0C16.1056 0 15.719 0.214338 15.5753 0.534645L12.3364 7.74995C11.8515 8.83028 12.0588 9.9856 12.9051 10.9198C13.7514 11.8539 15.0761 12.3897 16.5397 12.3897C18.0033 12.3897 19.3281 11.8539 20.1744 10.9198C21.0206 9.98565 21.2278 8.83028 20.7428 7.75001ZM18.5066 9.99514C18.0485 10.5006 17.3317 10.7906 16.5397 10.7906C15.7477 10.7906 15.0308 10.5007 14.5729 9.9952C14.1149 9.48965 14.0028 8.86439 14.2651 8.2798L16.5397 3.21272L18.8143 8.2798C19.0766 8.86445 18.9644 9.4896 18.5066 9.99514Z" fill="black"/>
<path d="M9.75182 9.10779C9.60812 8.78748 9.22143 8.57314 8.78753 8.57314C8.35363 8.57314 7.96694 8.78748 7.82324 9.10779L5.13035 15.107C4.71457 16.0331 4.8995 17.0642 5.62503 17.865C6.35057 18.6659 7.53283 19.144 8.7876 19.144C10.0424 19.144 11.2246 18.6659 11.9502 17.865C12.6756 17.0642 12.8606 16.0331 12.4448 15.107L9.75182 9.10779ZM10.2823 16.9404C9.93423 17.3246 9.38939 17.5449 8.78746 17.5449C8.18553 17.5449 7.64076 17.3246 7.29265 16.9404C6.94467 16.5562 6.85942 16.0811 7.0588 15.6368L8.78739 11.786L10.516 15.6368C10.7156 16.0811 10.6303 16.5562 10.2823 16.9404Z" fill="black"/>
<path d="M5.67171 8.38246C6.2564 7.7371 6.40549 6.90619 6.07045 6.15982L4.0875 1.74242C3.94379 1.42211 3.55711 1.20777 3.12321 1.20777C2.6893 1.20777 2.30262 1.42211 2.15892 1.74242L0.175959 6.15982C-0.159076 6.90619 -0.00998949 7.7371 0.574704 8.38246C1.15933 9.02782 2.1121 9.41316 3.12321 9.41316C4.13431 9.41316 5.08708 9.02782 5.67171 8.38246ZM4.00403 7.45779C3.79893 7.68417 3.47786 7.81402 3.12321 7.81402C2.76855 7.81402 2.44748 7.68417 2.24238 7.45779C2.03729 7.2314 1.98707 6.95139 2.10461 6.68962L3.12321 4.42055L4.1418 6.68962C4.25934 6.95139 4.20905 7.2314 4.00403 7.45779Z" fill="black"/>
</svg>
