<svg width="66" height="63" viewBox="0 0 66 63" fill="none" xmlns="http://www.w3.org/2000/svg">
<path d="M53.7305 39.9841H18.4189C8.2626 39.9841 0 33.3756 0 25.2527C0 17.661 7.15614 11.3865 16.3352 10.5529C17.9295 4.48071 24.6561 0 32.7464 0C36.755 0 40.6371 1.157 43.6779 3.258C45.9644 4.83766 47.6684 6.87259 48.6273 9.12987C55.9979 9.51635 61.8462 14.4395 61.8462 20.436C61.8462 21.1634 61.7528 21.8931 61.5672 22.6194C64.3486 24.4612 66 27.2079 66 30.1712C65.9998 35.582 60.4959 39.9841 53.7305 39.9841ZM18.4189 15.3807C11.656 15.3807 6.15383 19.8092 6.15383 25.2527C6.15383 30.6616 11.656 35.0622 18.4189 35.0622H53.7305C57.1026 35.0622 59.846 32.8681 59.846 30.171C59.846 28.345 58.5865 26.6836 56.5591 25.8349C55.1702 25.2535 54.5497 23.9299 55.1188 22.7615C55.4994 21.98 55.6923 21.1976 55.6923 20.4359C55.6923 16.9022 52.1036 14.0272 47.6923 14.0272C47.5697 14.0272 46.783 14.1175 46.6431 14.1315C44.9996 14.2936 43.4899 13.3887 43.2262 12.0812C42.4031 7.99969 37.8978 4.92183 32.7464 4.92183C26.9984 4.92183 22.3386 8.47822 22.1376 13.0184C22.1087 13.6732 21.7544 14.2919 21.1533 14.7371C20.5521 15.1822 19.7527 15.4169 18.9352 15.3902C18.7441 15.3838 18.5753 15.3807 18.4189 15.3807V15.3807ZM14.1606 62.7986C15.7213 62.261 16.4415 60.8131 15.7692 59.5649C14.7981 57.7619 15.2157 56.2631 16.388 53.9609C17.7137 51.3575 18.9604 48.2689 16.9593 44.5534C16.2872 43.3051 14.4772 42.7293 12.9163 43.2668C11.3555 43.8044 10.6354 45.2523 11.3077 46.5004C12.2787 48.3034 11.8612 49.8022 10.6889 52.1044C9.36321 54.7078 8.11644 57.7965 10.1175 61.512C10.6189 62.443 11.753 63 12.9449 63C13.351 63 13.764 62.9353 14.1606 62.7986V62.7986ZM27.2375 62.7986C28.7982 62.261 29.5184 60.8131 28.8461 59.5649C27.875 57.7619 28.2926 56.2631 29.4649 53.9609C30.7905 51.3575 32.0373 48.2689 30.0362 44.5534C29.3641 43.3051 27.5541 42.7293 25.9932 43.2668C24.4324 43.8044 23.7123 45.2523 24.3846 46.5004C25.3556 48.3034 24.9381 49.8022 23.7658 52.1044C22.4401 54.7078 21.1933 57.7965 23.1944 61.512C23.6958 62.443 24.8299 63 26.0218 63C26.4279 63 26.8409 62.9353 27.2375 62.7986V62.7986ZM40.3144 62.7986C41.8751 62.261 42.5953 60.8131 41.923 59.5649C40.9519 57.7619 41.3694 56.2631 42.5417 53.9609C43.8674 51.3575 45.1142 48.2689 43.1131 44.5534C42.441 43.3051 40.631 42.7293 39.0701 43.2668C37.5093 43.8044 36.7891 45.2523 37.4615 46.5004C38.4325 48.3034 38.015 49.8022 36.8427 52.1044C35.517 54.7078 34.2702 57.7965 36.2713 61.512C36.7727 62.443 37.9068 63 39.0987 63C39.5048 63 39.9178 62.9353 40.3144 62.7986V62.7986ZM53.3913 62.7986C54.952 62.261 55.6722 60.8131 54.9999 59.5649C54.0288 57.7619 54.4463 56.2631 55.6186 53.9609C56.9443 51.3575 58.1911 48.2689 56.19 44.5534C55.5179 43.3051 53.7077 42.7293 52.147 43.2668C50.5862 43.8044 49.866 45.2523 50.5383 46.5004C51.5094 48.3034 51.0919 49.8022 49.9196 52.1044C48.5939 54.7078 47.3471 57.7965 49.3482 61.512C49.8496 62.443 50.9837 63 52.1756 63C52.5817 63 52.9946 62.9353 53.3913 62.7986V62.7986ZM46.1537 26.6951C46.1537 22.3495 41.7368 18.8139 36.3076 18.8139C34.6082 18.8139 33.2307 19.9157 33.2307 21.2748C33.2307 22.634 34.6082 23.7358 36.3076 23.7358C38.3435 23.7358 39.9999 25.0633 39.9999 26.6951C39.9999 28.0543 41.3774 29.156 43.0768 29.156C44.7762 29.156 46.1537 28.0543 46.1537 26.6951Z" fill="white"/>
</svg>
