<svg width="67" height="59" viewBox="0 0 67 59" fill="none" xmlns="http://www.w3.org/2000/svg">
<path d="M64.6536 22.1846C63.2789 20.7807 61.3967 19.7584 59.3094 19.2729C57.1894 15.3566 52.6764 12.6513 47.5394 12.1989C46.7401 9.29713 44.971 6.66408 42.3917 4.54921L40.9181 5.78035C43.6164 7.99285 45.1387 10.7776 45.793 13.8433C51.2119 14.0256 55.7888 16.5663 57.7847 20.7534C61.7906 21.454 64.9063 24.1774 64.9063 27.6707C64.9063 31.5248 61.118 34.545 56.465 34.545H48.1598V36.2781H56.4615C62.2725 36.2781 67 32.4805 67 27.6707C67 25.6781 66.1667 23.7298 64.6536 22.1846Z" fill="#FBFBFB"/>
<path d="M43.9724 34.545H46.0661V36.2781H43.9724V34.545Z" fill="#FBFBFB"/>
<path d="M41.8785 36.2781V34.545H14.5866C7.69801 34.545 2.09389 29.9064 2.09389 24.2046C2.09389 19.5097 5.87645 15.438 11.3237 14.2235L11.3269 14.2339C16.8326 13.0836 22.7197 15.2568 25.3696 19.4097L27.2211 18.6002C24.4371 14.2375 18.5774 11.6952 12.6588 12.2733C14.5282 6.09818 21.1962 1.73303 29.0334 1.73303C32.7165 1.73303 36.2159 2.69671 39.1537 4.51997L40.4097 3.13332C37.1069 1.08349 33.173 0 29.0334 0C24.4971 0 20.1064 1.34575 16.67 3.78955C13.4439 6.08362 11.2406 9.20642 10.4162 12.6327C4.24947 14.1476 0 18.8274 0 24.2046C0 30.8619 6.54337 36.2781 14.5829 36.2781H41.8785Z" fill="#FBFBFB"/>
<path d="M17.8966 7.65768L19.5063 8.76589C19.9059 8.36811 20.3702 7.98418 20.8501 7.65364L19.5105 6.32163C19.1752 6.5527 18.1123 7.44313 17.8966 7.65768Z" fill="#FBFBFB"/>
<path d="M22.4151 6.70197C22.972 6.41844 23.5509 6.16923 24.1357 5.96115L23.309 4.36896C22.6312 4.61008 21.9613 4.89834 21.3181 5.22577L22.4151 6.70197Z" fill="#FBFBFB"/>
<path d="M4.4964 22.2576L6.53641 22.6478C6.67753 22.1426 6.88426 21.6551 7.15114 21.1991L5.26676 20.4436C4.93204 21.016 4.67283 21.6263 4.4964 22.2576Z" fill="#FBFBFB"/>
<path d="M9.45408 18.8156L8.15219 17.4583C7.54334 17.8585 6.98948 18.3169 6.5061 18.821L8.14591 19.8985C8.53004 19.4981 8.97029 19.1335 9.45408 18.8156Z" fill="#FBFBFB"/>
<path d="M15.6568 37.9895C14.4815 39.7766 12.3999 42.0987 12.3999 44.173C12.3999 45.6595 13.8609 46.8689 15.6568 46.8689C17.4526 46.8689 18.9136 45.6595 18.9136 44.173C18.9136 42.0935 16.8351 39.7812 15.6568 37.9895ZM15.6568 45.1358C13.3669 45.1358 15.2612 42.3796 15.6569 41.7013C16.0519 42.3784 17.9508 45.1358 15.6568 45.1358Z" fill="#FBFBFB"/>
<path d="M23.0313 50.1207C21.8562 51.9077 19.7744 54.2298 19.7744 56.3041C19.7744 57.7906 21.2355 59 23.0313 59C24.8272 59 26.2882 57.7906 26.2882 56.3041C26.2884 54.2247 24.2098 51.9124 23.0313 50.1207ZM23.0313 57.267C20.7413 57.267 22.6358 54.5109 23.0315 53.8325C23.4266 54.5096 25.3255 57.267 23.0313 57.267Z" fill="#FBFBFB"/>
<path d="M43.9688 50.1207C42.7937 51.9077 40.7119 54.2298 40.7119 56.3041C40.7119 57.7906 42.1729 59 43.9688 59C45.7647 59 47.2257 57.7906 47.2257 56.3041C47.2258 54.2247 45.1473 51.9124 43.9688 50.1207ZM43.9688 57.267C41.6788 57.267 43.5732 54.5109 43.9689 53.8325C44.3641 54.5096 46.263 57.267 43.9688 57.267Z" fill="#FBFBFB"/>
<path d="M33.5001 37.9895C32.3249 39.7765 30.2432 42.0986 30.2432 44.1729C30.2432 45.6594 31.7042 46.8688 33.5001 46.8688C35.2959 46.8688 36.7569 45.6594 36.7569 44.1729C36.7571 42.0935 34.6785 39.7812 33.5001 37.9895ZM33.5001 45.1358C31.2101 45.1358 33.1045 42.3797 33.5002 41.7013C33.8954 42.3784 35.7942 45.1358 33.5001 45.1358Z" fill="#FBFBFB"/>
<path d="M52.3438 37.9895C51.1686 39.7765 49.0869 42.0986 49.0869 44.1729C49.0869 45.6594 50.5479 46.8688 52.3438 46.8688C54.1396 46.8688 55.6007 45.6594 55.6007 44.1729C55.6008 42.0935 53.5223 39.7812 52.3438 37.9895ZM52.3438 45.1358C50.0538 45.1358 51.9482 42.3797 52.3439 41.7013C52.7391 42.3784 54.638 45.1358 52.3438 45.1358Z" fill="#FBFBFB"/>
</svg>
