<svg width="57" height="55" viewBox="0 0 57 55" fill="none" xmlns="http://www.w3.org/2000/svg">
<path d="M53.0659 27.4999L56.9999 23.704L54.6377 21.4247L50.0119 25.8882H37.136C36.907 24.7439 36.4408 23.6803 35.7862 22.7487L44.8923 13.9621H51.4343V13.962V10.7387V10.7386L45.8708 10.7387L45.8709 5.37042H45.8708V5.37031H42.5302V11.6828L33.4241 20.4693C32.4586 19.8377 31.3562 19.3879 30.1704 19.1669V6.74284L34.7962 2.27927L32.4339 0L28.5 3.796L24.566 0L22.2038 2.27927L26.8297 6.74284V19.1671C25.6438 19.388 24.5415 19.8378 23.5759 20.4695L14.4698 11.6829V5.37042V5.37031H11.1292V5.37042V10.7386V10.7387L5.56571 10.7386V10.7387V13.962V13.9621H12.1077L21.2138 22.7487C20.5592 23.6803 20.093 24.7439 19.864 25.8882H6.98803L2.36216 21.4247L0 23.704L3.93392 27.4999L0 31.2959L2.36216 33.5752L6.98803 29.1116H19.864C20.093 30.2559 20.5592 31.3195 21.2138 32.2511L12.1077 41.0378H5.56571V44.2612H11.1292V49.6295H14.4698V43.3171L23.576 34.5305C24.5415 35.1621 25.6439 35.6119 26.8298 35.8328V48.2572L22.2039 52.7207L24.5661 55L28.5001 51.204L32.434 55L34.7962 52.7207L30.1704 48.2572V35.8328C31.3563 35.6119 32.4586 35.1621 33.4241 34.5305L42.5302 43.3171V49.6295H45.8708V44.2612H51.4343H51.4344V41.0378H51.4343H44.8923L35.7862 32.2512C36.4408 31.3196 36.907 30.2559 37.136 29.1116H50.012L54.6378 33.5752L57 31.2959L53.0659 27.4999ZM33.9564 27.4999C33.9564 30.403 31.5086 32.7648 28.5 32.7648C25.4913 32.7648 23.0435 30.403 23.0435 27.4999C23.0435 24.5968 25.4912 22.235 28.5 22.235C31.5087 22.235 33.9564 24.5969 33.9564 27.4999Z" fill="#FBFBFB"/>
</svg>
