<svg width="60" height="53" viewBox="0 0 60 53" fill="none" xmlns="http://www.w3.org/2000/svg">
<path d="M53.0704 18.4456C53.0764 18.2813 53.0793 18.1171 53.0793 17.9528C53.0793 10.6644 47.281 4.73488 40.154 4.73488C38.7672 4.73488 37.4157 4.95519 36.1202 5.39114C34.8217 3.90598 33.2533 2.664 31.5247 1.75987C29.3231 0.608587 26.8444 0 24.3564 0C20.3492 0 16.5296 1.53908 13.6015 4.33366C11.0231 6.79437 9.34448 10.0244 8.79096 13.5433C3.69295 14.8629 0 19.6028 0 25.0999C0 31.6749 5.23062 37.024 11.66 37.024H15.6812L17.9532 41.6713L13.0791 43.9582L17.4616 52.923L20.6051 51.316L17.8476 45.6751L22.7216 43.3883L19.6104 37.024H27.7809L30.0527 41.6713L25.1787 43.9582L29.5613 52.9231L32.7048 51.3158L29.9472 45.6751L34.8212 43.3883L31.71 37.024H39.8804L42.1523 41.6713L37.2784 43.9582L41.6608 52.923L44.8044 51.316L42.0468 45.6751L46.9207 43.3883L43.8095 37.024H50.7703C55.8595 37.024 60 32.7898 60 27.5853C60.0001 23.1993 57.0755 19.4915 53.0704 18.4456ZM50.7704 33.43H11.66C7.16847 33.43 3.51442 29.693 3.51442 25.0999C3.51442 20.9239 6.56458 17.3736 10.6092 16.8416L12.0324 16.6543L12.1375 15.1908C12.3636 12.0446 13.735 9.12185 15.9991 6.96101C18.2743 4.78963 21.2423 3.5939 24.3563 3.5939C28.249 3.5939 31.8235 5.42361 34.1636 8.6139L35.0083 9.7653L36.2915 9.17373C37.5077 8.61294 38.8072 8.32865 40.154 8.32865C45.3431 8.32865 49.5649 12.6459 49.5649 17.9526C49.5649 18.5201 49.5161 19.0893 49.4201 19.6443L49.0729 21.6501L51.0622 21.7524C54.1034 21.9086 56.4856 24.4706 56.4856 27.5851C56.4857 30.808 53.9218 33.43 50.7704 33.43Z" fill="#FBFBFB"/>
</svg>
